<svg width="49" height="42" viewBox="0 0 49 42" fill="none" xmlns="http://www.w3.org/2000/svg">
<path d="M2.71387 9.00006V37.6571C2.71387 38.1691 3.16187 40.0001 3.71387 40.0001H45.7139C46.2659 40.0001 46.7139 38.1691 46.7139 37.6571V8.94906C46.7139 8.43706 46.2659 9.00006 45.7139 9.00006H20.7139" stroke="#8317DB" stroke-width="4" stroke-linecap="round" stroke-linejoin="round"/>
<path d="M19.7139 7.99944L16.8049 3.05944C16.8049 2.71644 16.3659 3.00044 15.8679 3.00044H3.22887C2.73087 3.00044 2.71387 2.44944 2.71387 2.79344V8.00044" stroke="#8317DB" stroke-width="4" stroke-linecap="round" stroke-linejoin="round"/>
<path d="M23.7139 2H43.7139" stroke="#8317DB" stroke-width="4" stroke-linecap="round" stroke-linejoin="round"/>
<path d="M25.798 16.7309L27.1387 20.5585C27.2913 20.9944 27.7292 21.2894 28.2231 21.2894H32.5715C33.675 21.2894 34.135 22.5988 33.2432 23.2019L29.7197 25.5849C29.3213 25.8544 29.1546 26.3311 29.3069 26.7662L30.6508 30.6071C30.9916 31.5813 29.7899 32.3913 28.8964 31.7896L25.3839 29.4243C24.9841 29.1552 24.4431 29.1554 24.0436 29.4247L20.5312 31.7931C19.6378 32.3954 18.4355 31.5857 18.7762 30.6112L20.1205 26.7651C20.2726 26.33 20.106 25.8535 19.7075 25.5841L16.1846 23.202C15.2928 22.5989 15.7526 21.2894 16.8564 21.2894H21.2041C21.698 21.2894 22.1358 20.9944 22.2885 20.5585L23.6292 16.7309C23.9705 15.7564 25.4567 15.7564 25.798 16.7309" stroke="#8317DB" stroke-width="2"/>
</svg>
