<svg width="60" height="52" viewBox="0 0 60 52" fill="none" xmlns="http://www.w3.org/2000/svg">
<path d="M59.5944 27.6432L50.3616 5.94286H55.2889C56.1031 5.94286 56.7639 5.27726 56.7639 4.45714C56.7639 3.63703 56.1031 2.97143 55.2889 2.97143H33.1639C33.1639 1.33046 31.843 0 30.2139 0C28.5847 0 27.2639 1.33046 27.2639 2.97143H6.61387C5.79967 2.97143 5.13887 3.63703 5.13887 4.45714C5.13887 5.27726 5.79967 5.94286 6.61387 5.94286H10.0661L0.832605 27.6432C0.75148 27.8341 0.713867 28.0332 0.713867 28.2286C0.713867 33.9723 5.33652 38.6286 11.0389 38.6286C16.7412 38.6286 21.3639 33.9723 21.3639 28.2286C21.3639 28.0332 21.3263 27.8341 21.2451 27.6432L12.0116 5.94286H27.2639V46.0571H12.5139V52H49.3889V46.0571H33.1639V5.94286H48.4161L39.1833 27.6432C39.1022 27.8341 39.0639 28.0332 39.0646 28.2286H39.0639C39.0639 33.9723 43.6865 38.6286 49.3889 38.6286C55.0912 38.6286 59.7139 33.9723 59.7139 28.2286H59.7131C59.7131 28.0332 59.6755 27.8341 59.5944 27.6432ZM18.2841 28.2286H3.79367L11.0389 11.2001L18.2841 28.2286ZM42.1437 28.2286L49.3889 11.2001L56.6341 28.2286H42.1437Z" fill="#8317DB"/>
</svg>
