<svg width="65" height="73" viewBox="0 0 65 73" fill="none" xmlns="http://www.w3.org/2000/svg">
<path d="M33.269 10.359C32.452 10.359 31.79 9.696 31.79 8.879L31.793 1.479C31.793 0.662 32.455 0 33.273 0C34.089 0 34.752 0.663001 34.752 1.48L34.749 8.879C34.749 9.697 34.087 10.359 33.269 10.359Z" fill="#8317DB"/>
<path d="M46.5818 14.801C46.2708 14.801 45.9638 14.703 45.6968 14.505C45.0398 14.015 44.9098 13.088 45.4008 12.434L49.8418 6.516C50.3308 5.862 51.2608 5.731 51.9138 6.22C52.5668 6.711 52.6978 7.639 52.2088 8.291L47.7658 14.208C47.4778 14.598 47.0318 14.801 46.5818 14.801Z" fill="#8317DB"/>
<path d="M18.4716 14.792C18.0206 14.792 17.5796 14.588 17.2866 14.199L12.8496 8.27897C12.3596 7.62597 12.4926 6.69797 13.1486 6.20797C13.7986 5.71897 14.7256 5.84997 15.2166 6.50497L19.6536 12.426C20.1436 13.079 20.0096 14.007 19.3576 14.496C19.0936 14.694 18.7806 14.792 18.4716 14.792Z" fill="#8317DB"/>
<path d="M8.1078 25.145C7.8868 25.145 7.6608 25.095 7.4498 24.989L1.5318 22.028C0.800803 21.661 0.504802 20.773 0.870802 20.042C1.2378 19.312 2.1248 19.018 2.8558 19.38L8.7748 22.341C9.5058 22.708 9.7998 23.596 9.4358 24.328C9.1748 24.846 8.6528 25.145 8.1078 25.145Z" fill="#8317DB"/>
<path d="M56.9376 25.162C56.3936 25.162 55.8746 24.862 55.6136 24.345C55.2476 23.613 55.5456 22.725 56.2766 22.358L62.1966 19.401C62.9276 19.038 63.8156 19.332 64.1836 20.064C64.5466 20.794 64.2526 21.683 63.5196 22.049L57.6006 25.006C57.3836 25.113 57.1596 25.162 56.9376 25.162Z" fill="#8317DB"/>
<path d="M43.6059 72.349L16.9719 72.34C16.1889 72.339 15.5539 71.704 15.5539 70.921L15.5619 48.773C12.6569 44.911 11.1259 40.335 11.1279 35.503C11.1319 23.298 21.0649 13.373 33.2689 13.378C45.4739 13.382 55.3989 23.315 55.3949 35.52L55.3939 36.734C59.8299 48.193 59.8289 48.52 59.8289 48.838C59.8279 50.436 58.5279 51.736 56.9299 51.735L53.9099 51.734L53.9089 54.754C53.9069 59.95 50.0359 62.841 45.0279 63.532L45.0259 70.933C45.0249 71.715 44.3889 72.35 43.6059 72.349ZM18.3909 69.504L42.1889 69.512L42.1899 62.208C42.1909 61.425 42.8259 60.79 43.6099 60.79C47.7219 60.791 51.0689 58.864 51.0709 54.752L51.0729 50.314C51.0729 49.53 51.7079 48.895 52.4919 48.895L56.9299 48.897C56.9389 48.897 56.9459 48.895 56.9519 48.892C56.4889 47.495 54.1349 41.337 52.6519 37.51C52.5899 37.346 52.5559 37.172 52.5559 36.996L52.5569 35.517C52.5599 24.877 43.9079 16.218 33.2669 16.214C22.6269 16.21 13.9679 24.863 13.9649 35.504C13.9629 39.858 15.3919 43.976 18.0959 47.414C18.2919 47.664 18.3989 47.973 18.3989 48.292L18.3909 69.504Z" fill="#8317DB"/>
<path d="M33.2477 26.155C28.9847 26.153 25.5187 29.619 25.5167 33.881C25.5157 38.142 28.9807 41.61 33.2427 41.611C37.5047 41.613 40.9727 38.148 40.9747 33.887C40.9747 29.625 37.5087 26.156 33.2477 26.155ZM33.2407 45.158C27.0227 45.156 21.9677 40.096 21.9697 33.88C21.9717 27.662 27.0307 22.606 33.2487 22.609C39.4667 22.611 44.5217 27.671 44.5197 33.888C44.5167 40.104 39.4587 45.161 33.2407 45.158Z" fill="#8317DB"/>
<path d="M33.2458 31.901C32.1528 31.901 31.2638 32.79 31.2638 33.882C31.2628 34.975 32.1518 35.865 33.2438 35.865C34.3378 35.865 35.2258 34.976 35.2258 33.883C35.2258 32.791 34.3388 31.901 33.2458 31.901ZM33.2428 39.412C30.1938 39.411 27.7158 36.93 27.7168 33.881C27.7178 30.833 30.1978 28.354 33.2468 28.355C36.2948 28.356 38.7738 30.837 38.7728 33.885C38.7708 36.933 36.2908 39.413 33.2428 39.412Z" fill="#8317DB"/>
</svg>
